<?xml version="1.0" encoding="utf-8"?>
<!-- Generator: Adobe Illustrator 27.8.1, SVG Export Plug-In . SVG Version: 6.00 Build 0)  -->
<svg version="1.1" id="Capa_1" xmlns="http://www.w3.org/2000/svg" xmlns:xlink="http://www.w3.org/1999/xlink" x="0px" y="0px"
	 viewBox="0 0 1080 1080" style="enable-background:new 0 0 1080 1080;" xml:space="preserve">
<style type="text/css">
	.st0{fill:#444BBC;}
	.st1{fill:none;stroke:#FEFEFE;stroke-width:56;stroke-miterlimit:10;}
</style>
<g>
	<g>
		<circle class="st0" cx="549.7" cy="447.9" r="265.7"/>
		<path class="st1" d="M408.3,530.8c0,0,96.4-97.9,141.3-143.4c44.8,45.5,141.3,143.4,141.3,143.4"/>
	</g>
	<g>
		<g>
			<path class="st0" d="M118.8,871.2c-4,2-12.1,4-22.5,4c-24,0-42-15.1-42-43c0-26.6,18-44.7,44.4-44.7c10.6,0,17.3,2.3,20.2,3.8
				l-2.7,9c-4.2-2-10.1-3.5-17.2-3.5c-19.9,0-33.2,12.7-33.2,35.1c0,20.8,12,34.2,32.7,34.2c6.7,0,13.5-1.4,17.9-3.5L118.8,871.2z"
				/>
			<path class="st0" d="M178.9,834.1h-33.1v30.7h36.8v9.2h-47.8v-85h45.9v9.2h-34.9v26.9h33.1L178.9,834.1L178.9,834.1z"/>
			<path class="st0" d="M199.2,874v-85h12l27.2,43c6.3,10,11.2,18.9,15.3,27.6l0.2-0.1c-1-11.4-1.3-21.7-1.3-35V789h10.4v85H252
				l-27-43.2c-5.9-9.5-11.6-19.2-15.9-28.4l-0.4,0.1c0.6,10.7,0.9,21,0.9,35.1V874H199.2z"/>
			<path class="st0" d="M300.6,798.3h-25.9V789h63v9.3h-26V874h-11.1V798.3z"/>
			<path class="st0" d="M353.8,847.2l-8.8,26.8h-11.4l28.9-85h13.2l29,85H393l-9.1-26.8H353.8z M381.7,838.7l-8.3-24.5
				c-1.9-5.5-3.1-10.6-4.4-15.5h-0.2c-1.3,5-2.6,10.2-4.3,15.4l-8.3,24.6L381.7,838.7L381.7,838.7z"/>
			<path class="st0" d="M427,789v50.3c0,19,8.5,27.1,19.8,27.1c12.6,0,20.7-8.3,20.7-27.1V789h11.1v49.6c0,26.1-13.8,36.8-32.2,36.8
				c-17.4,0-30.5-10-30.5-36.3V789H427z"/>
			<path class="st0" d="M499.9,790.1c5.5-1.1,13.5-1.8,21.1-1.8c11.7,0,19.3,2.2,24.6,6.9c4.3,3.8,6.7,9.6,6.7,16.2
				c0,11.2-7.1,18.7-16,21.7v0.4c6.6,2.3,10.5,8.3,12.5,17.2c2.8,11.9,4.8,20.1,6.6,23.3h-11.4c-1.4-2.4-3.3-9.7-5.7-20.3
				c-2.5-11.7-7.1-16.2-17-16.5h-10.4V874h-11L499.9,790.1L499.9,790.1z M510.9,828.8h11.2c11.7,0,19.2-6.4,19.2-16.2
				c0-11-8-15.8-19.6-15.9c-5.3,0-9.1,0.5-10.9,1L510.9,828.8L510.9,828.8z"/>
			<path class="st0" d="M643.1,830.6c0,29.3-17.8,44.8-39.5,44.8c-22.5,0-38.2-17.4-38.2-43.2c0-27,16.8-44.7,39.5-44.7
				C628.1,787.6,643.1,805.4,643.1,830.6z M577.1,832c0,18.2,9.8,34.5,27.1,34.5c17.4,0,27.2-16,27.2-35.3
				c0-16.9-8.8-34.6-27.1-34.6C586.2,796.5,577.1,813.3,577.1,832z"/>
			<path class="st0" d="M658.1,860.6c4.9,3,12.1,5.5,19.7,5.5c11.2,0,17.8-5.9,17.8-14.5c0-8-4.5-12.5-16-16.9
				c-13.9-4.9-22.5-12.1-22.5-24.1c0-13.2,11-23.1,27.5-23.1c8.7,0,15,2,18.8,4.2l-3,9c-2.8-1.5-8.5-4-16.2-4
				c-11.6,0-16,6.9-16,12.7c0,8,5.2,11.9,16.9,16.4c14.4,5.5,21.7,12.5,21.7,25c0,13.1-9.7,24.5-29.8,24.5c-8.2,0-17.2-2.4-21.7-5.4
				L658.1,860.6z"/>
			<path class="st0" d="M753.1,790.1c4.8-1,12.4-1.8,20.1-1.8c11,0,18,1.9,23.3,6.2c4.4,3.3,7.1,8.3,7.1,15
				c0,8.2-5.4,15.4-14.4,18.7v0.2c8.1,2,17.5,8.7,17.5,21.3c0,7.3-2.9,12.9-7.2,17c-5.9,5.4-15.5,8-29.4,8c-7.6,0-13.4-0.5-17-1
				L753.1,790.1L753.1,790.1z M764.1,824.9h10c11.6,0,18.4-6.1,18.4-14.3c0-10-7.6-13.9-18.7-13.9c-5,0-8,0.4-9.7,0.8V824.9z
				 M764.1,865.7c2.2,0.4,5.3,0.5,9.2,0.5c11.4,0,21.8-4.2,21.8-16.5c0-11.6-10-16.4-22-16.4h-9.1L764.1,865.7L764.1,865.7z"/>
			<path class="st0" d="M837.5,847.2l-8.8,26.8h-11.4l28.9-85h13.2l29,85h-11.7l-9.1-26.8H837.5z M865.4,838.7l-8.3-24.5
				c-1.9-5.5-3.2-10.6-4.4-15.5h-0.2c-1.3,5-2.7,10.2-4.3,15.4l-8.3,24.6L865.4,838.7L865.4,838.7z"/>
			<path class="st0" d="M903.2,874v-85h12l27.2,43c6.3,10,11.2,18.9,15.3,27.6l0.2-0.1c-1-11.4-1.3-21.7-1.3-35V789h10.3v85H956
				l-27-43.2c-5.9-9.5-11.6-19.2-15.9-28.4l-0.4,0.1c0.6,10.7,0.9,21,0.9,35.1V874H903.2z"/>
			<path class="st0" d="M988.5,789h11v41h0.4c2.3-3.3,4.5-6.3,6.7-9.1l26-31.9h13.6l-30.8,36.1l33.2,48.9h-13l-28-41.8l-8.1,9.3V874
				h-11L988.5,789L988.5,789z"/>
		</g>
	</g>
</g>
</svg>
